HIERARCHY
ROOT Hips
{
  OFFSET -25.4992 47.4658 0.522821
  CHANNELS 6 Xposition Yposition Zposition Zrotation Xrotation Yrotation
  JOINT Bip01_Pelvis
  {
    OFFSET 0 0 0
    CHANNELS 6 Xposition Yposition Zposition Zrotation Xrotation Yrotation
    JOINT Bip01_Spine
    {
      OFFSET 7.92815 1.03427 -0.957866
      CHANNELS 6 Xposition Yposition Zposition Zrotation Xrotation Yrotation
      JOINT Bip01_Spine1
      {
        OFFSET 14.2482 -0.00839019 0.000894789
        CHANNELS 6 Xposition Yposition Zposition Zrotation Xrotation Yrotation
        JOINT Bip01_Neck
        {
          OFFSET 16.1384 -3.98645 0.000135839
          CHANNELS 6 Xposition Yposition Zposition Zrotation Xrotation Yrotation
          JOINT Bip01_Neck1
          {
            OFFSET 9.69266 -0.00491233 0
            CHANNELS 6 Xposition Yposition Zposition Zrotation Xrotation Yrotation
            JOINT Bip01_Head
            {
              OFFSET 6.2355 0 0
              CHANNELS 6 Xposition Yposition Zposition Zrotation Xrotation Yrotation
              JOINT BN_Mouth_01
              {
                OFFSET 4.58056 2.14338 0
                CHANNELS 6 Xposition Yposition Zposition Zrotation Xrotation Yrotation
                End Site
                {
                  OFFSET 0 0 0
                }
              }
            }
          }
          JOINT Bip01_L_Clavicle
          {
            OFFSET -0.933029 -3.98291 -6.88005
            CHANNELS 6 Xposition Yposition Zposition Zrotation Xrotation Yrotation
            JOINT Bip01_L_UpperArm
            {
              OFFSET 15.6802 0 0
              CHANNELS 6 Xposition Yposition Zposition Zrotation Xrotation Yrotation
              JOINT Bip01_L_Forearm
              {
                OFFSET 15.3149 0 0
                CHANNELS 6 Xposition Yposition Zposition Zrotation Xrotation Yrotation
                JOINT Bip01_L_Hand
                {
                  OFFSET 16.178 0 0
                  CHANNELS 6 Xposition Yposition Zposition Zrotation Xrotation Yrotation
                  JOINT Bip01_L_Finger0
                  {
                    OFFSET 12.9992 0 0
                    CHANNELS 6 Xposition Yposition Zposition Zrotation Xrotation Yrotation
                    End Site
                    {
                      OFFSET 0 0 0
                    }
                  }
                }
              }
              JOINT BN__UpperArm_L_01
              {
                OFFSET 4.92586 2.56729 1.95639
                CHANNELS 6 Xposition Yposition Zposition Zrotation Xrotation Yrotation
                End Site
                {
                  OFFSET 0 0 0
                }
              }
            }
          }
          JOINT Bip01_R_Clavicle
          {
            OFFSET -1.90751 -3.34722 7.0168
            CHANNELS 6 Xposition Yposition Zposition Zrotation Xrotation Yrotation
            JOINT Bip01_R_UpperArm
            {
              OFFSET 15.6801 0 0
              CHANNELS 6 Xposition Yposition Zposition Zrotation Xrotation Yrotation
              JOINT Bip01_R_Forearm
              {
                OFFSET 15.3149 0 0
                CHANNELS 6 Xposition Yposition Zposition Zrotation Xrotation Yrotation
                JOINT Bip01_R_Hand
                {
                  OFFSET 16.1779 0 0
                  CHANNELS 6 Xposition Yposition Zposition Zrotation Xrotation Yrotation
                  JOINT Bip01_R_Finger0
                  {
                    OFFSET 12.9991 0 0
                    CHANNELS 6 Xposition Yposition Zposition Zrotation Xrotation Yrotation
                    End Site
                    {
                      OFFSET 0 0 0
                    }
                  }
                }
              }
              JOINT BN__UpperArm_R_01
              {
                OFFSET 4.92584 2.56728 -1.95638
                CHANNELS 6 Xposition Yposition Zposition Zrotation Xrotation Yrotation
                End Site
                {
                  OFFSET 0 0 0
                }
              }
            }
          }
        }
      }
      JOINT Bip01_L_Thigh
      {
        OFFSET -8.91231 -1.85462 5.82833
        CHANNELS 6 Xposition Yposition Zposition Zrotation Xrotation Yrotation
        JOINT Bip01_L_Calf
        {
          OFFSET 15.7566 0 0
          CHANNELS 6 Xposition Yposition Zposition Zrotation Xrotation Yrotation
          JOINT Bip01_L_HorseLink
          {
            OFFSET 16.2363 0 0
            CHANNELS 6 Xposition Yposition Zposition Zrotation Xrotation Yrotation
            JOINT Bip01_L_Foot
            {
              OFFSET 13.9816 0 0
              CHANNELS 6 Xposition Yposition Zposition Zrotation Xrotation Yrotation
              JOINT Bip01_L_Toe0
              {
                OFFSET 7.68594 5.03696 0
                CHANNELS 6 Xposition Yposition Zposition Zrotation Xrotation Yrotation
                End Site
                {
                  OFFSET 0 0 0
                }
              }
            }
          }
        }
      }
      JOINT Bip01_R_Thigh
      {
        OFFSET -6.80264 -1.57702 -6.62463
        CHANNELS 6 Xposition Yposition Zposition Zrotation Xrotation Yrotation
        JOINT Bip01_R_Calf
        {
          OFFSET 15.7566 0 0
          CHANNELS 6 Xposition Yposition Zposition Zrotation Xrotation Yrotation
          JOINT Bip01_R_HorseLink
          {
            OFFSET 16.2363 0 0
            CHANNELS 6 Xposition Yposition Zposition Zrotation Xrotation Yrotation
            JOINT Bip01_R_Foot
            {
              OFFSET 13.9816 0 0
              CHANNELS 6 Xposition Yposition Zposition Zrotation Xrotation Yrotation
              JOINT Bip01_R_Toe0
              {
                OFFSET 7.68597 5.03696 0
                CHANNELS 6 Xposition Yposition Zposition Zrotation Xrotation Yrotation
                End Site
                {
                  OFFSET 0 0 0
                }
              }
            }
          }
        }
      }
    }
    JOINT BN_Tail_01
    {
      OFFSET -7.9584 -2.82211 0
      CHANNELS 6 Xposition Yposition Zposition Zrotation Xrotation Yrotation
      JOINT BN_Tail_02
      {
        OFFSET 10.9082 0 0.00113176
        CHANNELS 6 Xposition Yposition Zposition Zrotation Xrotation Yrotation
        End Site
        {
          OFFSET 0 0 0
        }
      }
    }
  }
}
MOTION
Frames:	6
Frame Time:	0.0333333
-20 47.1136 0.37541 -180 -90 -95.8559 -3.8147e-006 -5.55112e-017 9.53674e-007 -89.9846 -16.2674 -94.4027 7.94259 -1.21391 -0.612228 7.76695 0.547919 5.17341 14.2479 -0.00839615 5.49554e-005 -6.59022 -0.356647 -1.41126 16.142 -3.99001 2.98023e-007 -21.7052 -0.721702 -0.191775 9.69236 -0.00485993 0 -11.5805 -0.169144 0.766721 6.2355 -7.6294e-006 5.96046e-008 9.30813 4.30648 0.86415 4.58055 2.14338 0 -108.226 -2.87472 -177.993 -3.52942 -1.69848 -6.98311 -158.337 -3.34388 -80.5515 15.6802 -1.14441e-005 2.86102e-006 -148.557 -59.7455 -52.414 15.3149 1.90736e-006 -9.53674e-007 -23.8832 3.12958e-006 3.36218e-006 16.178 1.90737e-006 -1.90735e-006 -154.814 -85.8892 -149.363 12.9992 9.53695e-007 -7.62928e-006 -9.46035 0.610496 -33.7977 2.79317 3.86362 -3.0091 -126.021 -79.3773 -131.367 -3.48213 -1.87446 6.96136 -158.345 9.10481 89.6163 15.6802 0 9.53673e-007 -156.516 79.437 57.4061 15.3149 -1.90736e-006 -9.53674e-007 -84.635 1.5712e-005 -3.1731e-006 16.1779 0 1.90735e-006 13.5325 83.6761 23.273 12.9992 -9.53693e-007 3.81468e-006 -1.06162 9.72858 28.8825 5.62875 3.46394 2.13408 53.9722 -79.3762 48.6258 -8.29702 2.34313 6.1837 -96.1658 9.27211 -177.588 15.7566 -1.90735e-006 -1.90735e-006 -92.456 3.03889e-007 -2.2373e-006 16.2363 3.8147e-006 9.53673e-007 51.1644 8.47848e-006 6.59107e-006 13.9816 0 9.53672e-007 -52.5474 1.71406 -5.67491 7.68592 5.03696 -3.5527e-015 89.9962 9.41753e-006 1.45247e-006 -7.15775 2.2216 -6.39771 -89.7564 -6.59461 -179.477 15.7566 0 0 -91.5097 -9.59516e-006 2.3624e-007 16.2363 5.72205e-006 -9.53673e-007 102.274 4.20499e-007 -4.36441e-007 13.9816 7.62939e-006 2.86102e-006 -71.4557 7.23301 5.28805 7.68596 5.03695 1.90734e-006 89.9962 2.53977e-006 -3.60599e-007 -7.9584 -2.82211 -5.96046e-007 -0.732168 3.87525 -169.178 10.9082 3.8147e-006 5.96046e-007 17.2831 -6.19794 25.6797 
-20 47.9327 0.250243 180 -90 -95.6107 -1.11089e-006 7.42066e-009 2.8385e-007 -89.9418 -17.6055 -95.6499 7.8971 -1.39989 -0.782935 7.60758 0.752518 6.03393 14.248 -0.00840052 2.50874e-006 -5.57666 -0.525042 -0.72236 16.142 -3.99 9.382e-007 -22.3036 -0.708268 -0.168143 9.69238 -0.00486368 4.87374e-007 -14.0059 -0.0481779 0.392227 6.23548 -8.92563e-006 2.18455e-007 9.39452 4.23949 1.10522 4.58054 2.14337 1.84147e-007 -109.045 -2.86873 -177.999 -3.50865 -1.73579 -6.98468 -157.729 -5.918 -80.9546 15.6801 -7.27645e-006 -1.54052e-006 -116.736 -69.3806 -21.3237 15.3148 -3.4855e-006 -1.82726e-006 -45.5895 -1.40046e-005 -9.58878e-006 16.1778 -2.2063e-006 -1.84296e-008 -153.51 -84.7775 -156.025 12.9991 -1.09081e-006 -6.88917e-006 -7.34906 -1.9191 -28.6449 2.79315 3.8636 -3.00908 -126.021 -79.3773 -131.367 -3.46587 -1.90968 6.95991 -157.754 11.1544 93.2481 15.6801 -2.41223e-007 2.01266e-006 -172.69 78.9704 70.8554 15.3148 -1.84278e-006 -1.2094e-006 -72.9018 1.63869e-005 -3.1849e-007 16.1779 -1.04146e-006 -4.34899e-007 -11.8204 81.5188 39.7668 12.9991 -1.74951e-006 7.48337e-006 -1.2345 10.3325 26.9641 5.62874 3.46393 2.13408 53.9724 -79.3762 48.6259 -8.34305 2.52659 6.22406 -106.818 8.32763 -174.898 15.7566 -7.62864e-007 -1.23871e-006 -99.4414 1.6425e-006 1.09526e-006 16.2363 6.93613e-007 7.21663e-007 59.9898 8.56869e-006 5.31073e-006 13.9815 -6.693e-006 -6.70399e-008 -53.9442 3.75734 -4.24947 7.68591 5.03695 -4.22075e-007 89.9962 9.63284e-006 3.07395e-006 -7.01456 2.35989 -6.33823 -97.8854 -8.16924 179.671 15.7566 -1.56319e-006 -2.3587e-007 -91.2493 -1.00192e-005 -1.79898e-005 16.2363 7.99107e-006 2.92027e-006 105.462 -2.04337e-005 -5.52556e-006 13.9816 8.19464e-006 2.29496e-006 -70.3702 7.70683 4.64088 7.68592 5.03693 3.68775e-006 89.9963 -1.70408e-005 1.76361e-005 -7.9584 -2.82211 -3.84913e-007 -1.89066 3.95521 -169.963 10.9082 3.52828e-006 1.19673e-006 12.1847 -7.1071 25.3172 
-20 48.7618 0.0971041 180 -90 -95.672 -3.82928e-006 1.09773e-014 7.06075e-007 -90.0069 -19.9678 -97.4277 7.80562 -1.72576 -1.01773 6.82577 0.994198 7.53487 14.2481 -0.00839157 -5.18787e-005 -4.65075 -0.663901 -0.28596 16.142 -3.99001 -1.59847e-007 -22.5202 -0.598815 -0.0728658 9.69247 -0.00486967 2.82193e-009 -16.2321 0.0267546 0.183965 6.2355 -1.17395e-005 -4.76414e-008 8.93171 3.94195 1.14515 4.58055 2.14338 1.65353e-008 -109.863 -2.86257 -178.004 -3.48938 -1.76246 -6.98725 -157.499 -9.13844 -81.6064 15.6802 -3.77911e-006 -8.45923e-007 -87.4737 -69.1304 8.71264 15.3149 -1.96519e-006 5.78217e-007 -52.814 1.57357e-005 -7.92645e-006 16.1779 4.93677e-007 -8.53077e-007 -162.821 -83.9237 -164.158 12.9992 1.07913e-006 -6.37666e-006 -4.21252 -4.89549 -21.4164 2.79317 3.86362 -3.0091 -126.021 -79.3773 -131.367 -3.47099 -1.90924 6.95757 -157.556 13.6143 96.5614 15.6802 1.46529e-007 2.14049e-006 176.772 80.0383 78.2271 15.3149 -6.55888e-007 -1.78714e-006 -57.3141 -4.26518e-006 1.3616e-005 16.178 3.66588e-006 1.79674e-006 -29.6586 79.1143 44.2019 12.9992 -5.6301e-008 -4.08698e-007 -0.103177 11.1171 22.9993 5.62877 3.46394 2.13408 53.9724 -79.3762 48.6259 -8.43564 2.76886 6.2349 -120.6 6.19518 -171.093 15.7566 1.17503e-006 -2.05875e-006 -107.543 1.98529e-007 -1.40007e-007 16.2363 1.01607e-006 2.87621e-007 72.576 1.1999e-005 -3.11101e-006 13.9816 -2.08828e-006 -8.54157e-007 -51.8913 7.95389 -2.44431 7.68592 5.03696 7.87966e-007 89.9962 1.01115e-005 -5.37412e-007 -6.77898 2.54901 -6.28755 -107.556 -9.79479 178.076 15.7566 4.63557e-006 -3.62152e-007 -91.3444 -1.17539e-005 4.1568e-006 16.2363 5.07783e-006 -1.16447e-006 107.442 6.61383e-006 1.36011e-005 13.9816 9.79449e-006 1.29842e-006 -69.1029 7.8617 4.54656 7.68594 5.03695 4.02395e-007 89.9962 9.29578e-006 1.48388e-006 -7.9584 -2.82211 -6.5943e-007 -5.09411 4.15318 -170.821 10.9082 1.51552e-006 4.8605e-007 6.209 -8.46241 24.2583 
-20 49.3465 -0.0743724 -180 -90 -96.0254 -1.57174e-006 -1.419e-013 7.57113e-008 -90.2337 -23.035 -99.5804 7.66086 -2.14406 -1.28908 5.60036 1.26475 9.45932 14.2482 -0.00839501 -0.000105198 -3.7955 -0.764786 -0.0463172 16.1421 -3.99002 -1.7569e-007 -22.4374 -0.423749 0.0692608 9.69252 -0.00486921 -1.18539e-008 -18.2023 0.0581292 0.101407 6.2355 -7.91296e-006 -8.79396e-008 8.08982 3.477 1.02029 4.58055 2.14338 -3.94434e-008 -110.682 -2.85642 -178.01 -3.47456 -1.77934 -6.99045 -157.557 -12.0132 -82.1901 15.6802 -2.60268e-006 -2.47192e-006 -72.0718 -65.176 25.4682 15.3149 1.00881e-007 -2.26201e-006 -54.0198 7.7213e-008 1.43898e-005 16.1779 -1.42179e-006 -2.22245e-006 -169.632 -83.1727 -166.652 12.9992 2.24341e-006 -1.0438e-005 -0.707378 -7.44846 -13.9973 2.79317 3.86362 -3.0091 -126.021 -79.3773 -131.367 -3.49077 -1.88308 6.95486 -157.666 15.8498 98.2344 15.6802 -5.33718e-007 3.76379e-007 173.688 82.7124 78.5922 15.3149 -5.65838e-007 -5.23895e-006 -48.68 -1.6276e-006 1.40017e-005 16.178 -1.92851e-006 -8.79545e-007 -42.2295 78.6016 47.4899 12.9992 -2.73087e-006 6.67828e-006 1.10072 10.7842 18.7217 5.62876 3.46394 2.13408 53.9726 -79.3763 48.6261 -8.55363 3.04916 6.21873 -133.787 3.95923 -167.922 15.7566 2.11404e-006 -1.27114e-006 -113.95 -3.73952e-006 -4.14256e-006 16.2363 4.64087e-007 7.25032e-008 84.9997 1.27663e-005 2.3205e-005 13.9816 -2.29283e-006 -8.256e-007 -48.5409 12.1291 -1.9454 7.68593 5.03696 1.07133e-006 89.9962 -4.48857e-005 -7.06786e-006 -6.47743 2.7695 -6.23984 -118.29 -11.2248 175.832 15.7566 1.90201e-006 9.79487e-007 -91.6903 -1.34305e-005 1.03769e-005 16.2363 2.58498e-006 2.37244e-007 108.423 -5.81647e-007 -4.87181e-006 13.9816 8.83601e-006 2.68833e-006 -67.6179 7.89871 4.95699 7.68595 5.03695 3.11147e-006 89.9963 1.24789e-005 -4.57453e-006 -7.9584 -2.82211 -4.88882e-009 -9.78562 4.43429 -171.721 10.9082 1.51811e-006 1.16099e-007 -0.50612 -10.2879 22.5112 
-20 49.4326 -0.254552 180 -90 -96.6497 -1.80329e-006 -6.90891e-009 5.21018e-007 -90.6617 -26.4749 -101.974 7.46272 -2.60672 -1.57014 4.09663 1.55598 11.601 14.2482 -0.00839815 -0.000158267 -2.99021 -0.823124 0.0379585 16.1418 -3.98996 2.72076e-009 -22.1556 -0.217893 0.221042 9.69229 -0.00487363 1.78037e-007 -19.8476 0.0566762 0.102204 6.23525 -1.21777e-005 5.96511e-008 7.00586 2.90355 0.779017 4.58032 2.14327 4.11889e-008 -111.5 -2.85004 -178.015 -3.46556 -1.78729 -6.99278 -157.82 -13.5499 -82.3903 15.6797 2.30834e-006 -1.9473e-006 -64.0543 -60.3243 34.3375 15.3143 -1.85426e-006 -8.90915e-006 -54.9401 -7.84642e-005 -6.25142e-005 16.1773 2.08861e-005 1.3913e-005 -167.383 -82.1565 -161.315 12.9984 -1.30458e-005 1.77044e-005 1.61788 -8.36381 -7.85573 2.79307 3.86347 -3.00899 -126.021 -79.3772 -131.368 -3.51815 -1.84082 6.95215 -157.977 18.0192 98.2524 15.6796 1.45834e-005 -2.34533e-006 -147.782 88.0886 37.8671 15.3142 7.78528e-007 -5.86895e-006 -55.5322 -4.1758e-007 1.75096e-005 16.1773 3.82585e-006 -4.69099e-006 -53.58 79.8061 59.6232 12.9986 -6.55786e-006 -2.27457e-006 1.87072 8.84423 14.1773 5.62851 3.46379 2.13398 53.9727 -79.3762 48.6263 -8.67751 3.34663 6.17982 -142.966 3.56011 -166.345 15.7562 9.89317e-007 5.72068e-006 -115.848 2.20509e-005 7.94621e-006 16.2358 -7.15474e-007 -4.56325e-006 93.3391 4.51832e-005 -1.60016e-005 13.981 -4.45485e-007 5.50578e-006 -46.5038 14.0541 -1.61317 7.6856 5.03675 -1.9276e-006 89.9962 9.47964e-006 1.76208e-005 -6.13785 3.00281 -6.19085 -129.576 -12.2563 173.116 15.7562 1.19484e-006 -1.46724e-005 -92.1783 -6.73392e-005 -4.52343e-005 16.236 6.83143e-006 8.18993e-006 108.597 -8.05522e-006 4.35927e-005 13.9812 1.07579e-005 -1.24472e-005 -65.855 7.98398 5.70115 7.68557 5.03669 -5.5628e-006 89.9963 1.62308e-005 0.00010233 -7.95834 -2.82209 3.20109e-006 -15.4107 4.76339 -172.631 10.908 3.37484e-006 -1.16363e-006 -7.31446 -11.8978 20.5478 
-20 48.9756 -0.433798 -180 -90 -97.5269 3.08769e-007 -3.12361e-013 1.01718e-006 -91.2954 -29.9726 -104.447 7.22342 -3.06735 -1.83628 2.48944 1.85392 13.7453 14.2481 -0.00839577 -0.000211324 -2.2172 -0.826019 0.0259879 16.1419 -3.98998 1.10001e-008 -21.757 -0.0206937 0.348578 9.69243 -0.00487704 2.44131e-008 -21.1021 0.0334714 0.144969 6.23537 -8.35258e-006 -1.3397e-007 5.83826 2.27547 0.465347 4.58046 2.14333 -2.07257e-008 -112.319 -2.84375 -178.02 -3.46114 -1.78641 -6.99445 -158.205 -13.7411 -82.22 15.6797 -3.52611e-006 1.02055e-006 -58.6217 -54.3725 39.7347 15.3144 4.39946e-006 -2.46222e-006 -57.1986 -1.47826e-005 -3.98067e-006 16.1774 -3.99132e-007 1.59775e-006 -158.075 -79.9623 -149.772 12.9987 -6.65895e-007 -9.39894e-006 2.23601 -7.82446 -2.78541 2.79309 3.86351 -3.00902 -126.021 -79.3773 -131.367 -3.54629 -1.79227 6.95069 -158.406 20.4404 97.634 15.6798 -1.77922e-006 -2.22932e-006 -42.1732 84.5421 -70.2413 15.3144 1.64439e-006 -3.17345e-006 -61.1561 -3.60495e-006 1.37092e-005 16.1773 3.67214e-006 1.13108e-006 -73.9181 80.889 78.5756 12.9986 -2.39283e-006 7.69409e-007 2.44959 5.83224 8.75648 5.62859 3.46383 2.13402 53.9732 -79.3764 48.6267 -8.79082 3.64091 6.12544 -148.634 5.18775 -165.84 15.7562 -2.00601e-006 4.70984e-006 -113.867 1.11679e-005 3.55031e-005 16.2358 2.22935e-006 -1.05849e-005 98.1623 4.6485e-005 -7.57801e-006 13.9811 -1.3677e-006 2.02391e-006 -46.6505 14.3905 -0.184135 7.68565 5.03678 -4.37715e-006 89.9962 3.68237e-005 1.01315e-005 -5.79001 3.23147 -6.13945 -140.867 -12.7642 170.165 15.7562 3.70095e-007 4.49862e-007 -92.704 3.95246e-005 4.26439e-006 16.2358 3.27994e-006 -4.84535e-007 108.172 -6.26789e-006 -4.18254e-006 13.9812 6.38401e-006 1.6072e-006 -63.7597 8.17525 6.6286 7.68562 5.03673 -4.38997e-006 89.9963 4.33722e-005 2.66936e-005 -7.95835 -2.82209 -1.23279e-006 -21.4178 5.10488 -173.521 10.908 2.09574e-006 1.4313e-007 -14.0734 -13.6633 18.1252 
